<svg xmlns="http://www.w3.org/2000/svg" version="1.0" width="1280.000000pt" height="1280.000000pt" viewBox="0 0 1280.000000 1280.000000" preserveAspectRatio="xMidYMid meet">
<metadata fill="#ffffff">
Created by potrace 1.16, written by Peter Selinger 2001-2019
</metadata>
<g transform="translate(0.000000,1280.000000) scale(0.100000,-0.100000)" fill="#ffffff" stroke="none">
<path d="M6995 12785 c-673 -64 -1291 -237 -1873 -524 -242 -120 -367 -191 -575 -327 -303 -199 -549 -397 -814 -658 -445 -435 -780 -898 -1053 -1451 -320 -650 -491 -1289 -541 -2025 -13 -195 -7 -635 11 -820 108 -1108 536 -2118 1256 -2966 l102 -121 -1730 -1729 c-1405 -1404 -1735 -1738 -1754 -1779 -50 -104 -22 -252 59 -321 79 -66 205 -85 297 -43 35 15 417 392 1780 1754 l1735 1734 110 -96 c668 -579 1531 -1002 2398 -1177 345 -69 587 -96 952 -103 886 -18 1681 158 2470 547 859 423 1584 1065 2108 1867 458 699 735 1463 838 2308 26 220 37 758 20 997 -113 1542 -879 2946 -2116 3880 -759 573 -1628 920 -2604 1039 -221 27 -848 35 -1076 14z m805 -535 c1350 -101 2575 -747 3418 -1805 1066 -1335 1337 -3149 707 -4740 -59 -150 -212 -466 -294 -610 -325 -567 -787 -1088 -1316 -1480 -1251 -931 -2889 -1191 -4367 -695 -1376 463 -2477 1532 -2981 2895 -456 1233 -379 2609 210 3790 327 654 824 1249 1419 1697 128 96 357 247 499 329 147 84 462 236 610 294 442 174 927 286 1405 324 153 12 534 13 690 1z" fill="#ffffff"/>
<path d="M7342 9574 c-57 -28 -96 -69 -123 -129 -17 -38 -19 -88 -19 -872 l0 -832 -837 -3 -838 -3 -53 -29 c-168 -93 -192 -316 -49 -442 25 -22 63 -46 85 -52 29 -9 261 -12 866 -12 l826 0 0 -826 c0 -605 3 -837 12 -866 6 -22 30 -60 52 -85 126 -143 349 -119 442 49 l29 53 3 838 3 837 832 0 833 0 52 26 c94 47 141 126 142 239 0 88 -30 156 -91 208 -80 69 -52 67 -956 67 l-813 0 0 813 c0 904 2 876 -67 956 -78 91 -222 120 -331 65z" fill="#ffffff"/>
</g>
</svg>