<svg xmlns="http://www.w3.org/2000/svg" version="1.0" width="1280.000000pt" height="1280.000000pt" viewBox="0 0 1280.000000 1280.000000" preserveAspectRatio="xMidYMid meet">
<metadata fill="#ffffff">
Created by potrace 1.16, written by Peter Selinger 2001-2019
</metadata>
<g transform="translate(0.000000,1280.000000) scale(0.100000,-0.100000)" fill="#ffffff" stroke="none">
<path d="M6995 12785 c-673 -64 -1291 -237 -1873 -524 -242 -120 -367 -191 -575 -327 -303 -199 -549 -397 -814 -658 -445 -435 -780 -898 -1053 -1451 -320 -650 -491 -1289 -541 -2025 -13 -195 -7 -635 11 -820 107 -1098 524 -2091 1231 -2936 l127 -151 -1730 -1729 c-1405 -1404 -1735 -1738 -1754 -1779 -50 -104 -22 -252 59 -321 79 -66 205 -85 297 -43 35 15 417 392 1780 1754 l1735 1734 110 -96 c668 -579 1531 -1002 2398 -1177 345 -69 587 -96 952 -103 886 -18 1681 158 2470 547 859 423 1584 1065 2108 1867 458 699 735 1463 838 2308 26 220 37 758 20 997 -113 1542 -879 2946 -2116 3880 -759 573 -1628 920 -2604 1039 -221 27 -848 35 -1076 14z m805 -535 c899 -67 1753 -377 2467 -897 220 -159 361 -281 574 -493 212 -211 349 -369 501 -576 966 -1326 1186 -3055 583 -4579 -59 -150 -212 -466 -294 -610 -469 -819 -1172 -1485 -2016 -1910 -1028 -518 -2187 -647 -3310 -369 -832 206 -1608 647 -2225 1264 -1071 1071 -1573 2574 -1359 4065 181 1257 847 2378 1876 3158 125 95 355 246 498 328 144 82 459 235 610 294 437 173 927 286 1405 324 153 12 534 13 690 1z" fill="#ffffff"/>
<path d="M5533 7730 c-160 -38 -249 -225 -179 -375 28 -60 99 -127 154 -143 30 -9 519 -12 1969 -12 l1929 0 52 26 c94 47 141 126 142 239 0 88 -30 156 -91 208 -83 72 65 67 -2043 66 -1046 -1 -1915 -4 -1933 -9z" fill="#ffffff"/>
</g>
</svg>