<svg width="49" height="62" viewBox="0 0 49 62" fill="none" xmlns="http://www.w3.org/2000/svg">
<path fill-rule="evenodd" clip-rule="evenodd" d="M21.1507 0.332152C17.9047 1.22747 14.9744 3.71848 13.3877 6.93158C12.4824 8.76438 12.397 9.12619 12.2874 11.5947L12.1684 14.2707L8.433 14.2733C5.05254 14.2756 4.57524 14.3328 3.40959 14.8755C1.92019 15.569 0.960479 16.6051 0.370241 18.1573C-0.00281015 19.1385 -0.0388377 21.0587 0.0260629 36.5061L0.0983738 53.7592L0.914742 55.417C1.95392 57.5273 3.72898 59.3023 5.83927 60.3412L7.49756 61.1576H24.5H41.5024L43.1607 60.3412C45.271 59.3023 47.0461 57.5273 48.0853 55.417L48.9016 53.7592L48.9739 36.5061C49.0388 21.0587 49.0028 19.1385 48.6298 18.1573C48.0395 16.6051 47.0798 15.569 45.5904 14.8755C44.4248 14.3328 43.9475 14.2756 40.567 14.2733L36.8316 14.2707L36.7126 11.5947C36.603 9.12619 36.5176 8.76438 35.6123 6.93158C33.9957 3.65767 31.0782 1.20933 27.7323 0.318354C26.1159 -0.111932 22.7359 -0.104777 21.1507 0.332152ZM22.8961 4.31562C20.5988 4.7017 18.0904 6.69574 17.1228 8.90492C16.8458 9.53731 16.5377 11.0035 16.4383 12.1627L16.2576 14.2707H24.467H32.6765L32.6744 13.4403C32.6734 12.9837 32.5518 11.8625 32.4043 10.949C31.6687 6.39551 27.5631 3.53119 22.8961 4.31562ZM5.34153 18.687C4.03304 19.3491 4.0499 19.1061 4.12068 36.3727C4.18354 51.7079 4.21011 52.5174 4.68153 53.4674C5.3124 54.7394 6.51664 55.9436 7.78859 56.5744C8.74243 57.0479 9.47064 57.0694 24.5 57.0694C39.5294 57.0694 40.2576 57.0479 41.2114 56.5744C41.76 56.3023 42.5723 55.7164 43.0164 55.2724C43.4604 54.8283 44.0463 54.016 44.3185 53.4674C44.7924 52.5123 44.8134 51.7777 44.8134 36.0605V19.6508L44.2321 19.0688C43.6945 18.5304 43.392 18.4803 40.2078 18.4032L36.7647 18.3193V21.7542C36.7647 24.8421 36.7113 25.2568 36.235 25.8621C35.8267 26.3816 35.4802 26.5354 34.7206 26.5354C33.9609 26.5354 33.6145 26.3816 33.2061 25.8621C32.7304 25.2573 32.6765 24.8419 32.6765 21.7739V18.3589H24.5H16.3235V21.7739C16.3235 24.8419 16.2696 25.2573 15.7939 25.8621C15.3855 26.3816 15.0391 26.5354 14.2794 26.5354C13.5198 26.5354 13.1733 26.3816 12.765 25.8621C12.2892 25.2573 12.2353 24.8419 12.2353 21.7739V18.3589L9.10526 18.3628C7.10867 18.3651 5.74575 18.4826 5.34153 18.687Z" fill="black"/>
</svg>
